<svg xmlns="http://www.w3.org/2000/svg" viewBox="0 0 800 480" width="800" height="480">
  <defs>
    <linearGradient id="bg" x1="0" y1="0" x2="1" y2="1">
      <stop offset="0%" stop-color="#FAFAF9"/>
      <stop offset="100%" stop-color="#F0FBF4"/>
    </linearGradient>
  </defs>
  <rect width="800" height="480" fill="url(#bg)"/>
  <rect x="32" y="28" width="736" height="40" rx="6" fill="#FFFFFF" stroke="#E7E5E4"/>
  <circle cx="52" cy="48" r="6" fill="#FF5F57"/>
  <circle cx="72" cy="48" r="6" fill="#FEBC2E"/>
  <circle cx="92" cy="48" r="6" fill="#28C840"/>
  <text x="120" y="53" font-family="Pretendard, sans-serif" font-size="13" fill="#57534E">help.worksmobile.com  ·  릴리즈노트 · 2026.04</text>

  <rect x="32" y="80" width="220" height="372" rx="10" fill="#FFFFFF" stroke="#E7E5E4"/>
  <text x="52" y="112" font-family="Pretendard, sans-serif" font-size="11" font-weight="700" fill="#A8A29E" letter-spacing="1">CATEGORY</text>
  <rect x="48" y="128" width="188" height="32" rx="6" fill="#E5F7EB"/>
  <text x="60" y="148" font-family="Pretendard, sans-serif" font-size="13" font-weight="700" fill="#008A29">📝 릴리즈노트</text>
  <text x="60" y="180" font-family="Pretendard, sans-serif" font-size="13" fill="#57534E">📚 헬프센터</text>
  <text x="60" y="208" font-family="Pretendard, sans-serif" font-size="13" fill="#57534E">📢 공지사항</text>
  <text x="60" y="236" font-family="Pretendard, sans-serif" font-size="13" fill="#57534E">🛠️ 운영자 가이드</text>
  <text x="60" y="264" font-family="Pretendard, sans-serif" font-size="13" fill="#57534E">💬 자주 묻는 질문</text>

  <rect x="48" y="296" width="188" height="1" fill="#E7E5E4"/>
  <text x="52" y="320" font-family="Pretendard, sans-serif" font-size="11" font-weight="700" fill="#A8A29E" letter-spacing="1">LANGUAGE</text>
  <rect x="48" y="332" width="58" height="26" rx="4" fill="#00AB33"/>
  <text x="62" y="349" font-family="Pretendard, sans-serif" font-size="12" font-weight="700" fill="#FFFFFF">한국어</text>
  <rect x="112" y="332" width="58" height="26" rx="4" fill="#FFFFFF" stroke="#E7E5E4"/>
  <text x="130" y="349" font-family="Pretendard, sans-serif" font-size="12" font-weight="600" fill="#57534E">日本語</text>

  <rect x="276" y="80" width="492" height="372" rx="10" fill="#FFFFFF" stroke="#E7E5E4"/>
  <rect x="296" y="100" width="80" height="22" rx="4" fill="#E5F7EB"/>
  <text x="306" y="116" font-family="Pretendard, sans-serif" font-size="11" font-weight="700" fill="#00AB33">v 4.12.0</text>
  <text x="386" y="116" font-family="Pretendard, sans-serif" font-size="11" fill="#A8A29E">2026.04.18 배포</text>
  <text x="296" y="156" font-family="Pretendard, sans-serif" font-size="22" font-weight="800" fill="#0C0A09">파트너 정산 리포트 자동화 업데이트</text>

  <rect x="296" y="184" width="452" height="1" fill="#E7E5E4"/>
  <text x="296" y="212" font-family="Pretendard, sans-serif" font-size="13" font-weight="700" fill="#0C0A09">새로운 기능</text>
  <text x="296" y="236" font-family="Pretendard, sans-serif" font-size="13" fill="#57534E">·  파트너별 월 정산 데이터 자동 교차검증</text>
  <text x="296" y="258" font-family="Pretendard, sans-serif" font-size="13" fill="#57534E">·  Tableau 대시보드 연동 — 정합성 시각화</text>
  <text x="296" y="280" font-family="Pretendard, sans-serif" font-size="13" fill="#57534E">·  서비스 종료 고객사 End-to-End 안내 메일 템플릿</text>

  <text x="296" y="316" font-family="Pretendard, sans-serif" font-size="13" font-weight="700" fill="#0C0A09">개선사항</text>
  <text x="296" y="340" font-family="Pretendard, sans-serif" font-size="13" fill="#57534E">·  헬프센터 검색 정확도 — 한일 동시 검색 지원</text>
  <text x="296" y="362" font-family="Pretendard, sans-serif" font-size="13" fill="#57534E">·  CS 빈출 항목 셀프서비스 카드 7종 추가</text>

  <rect x="296" y="396" width="452" height="40" rx="6" fill="#FFF7ED"/>
  <text x="312" y="421" font-family="Pretendard, sans-serif" font-size="12" font-weight="700" fill="#EA580C">⚡ 효과 — CS 1차 응대 리드타임 약 57% 단축</text>
</svg>
