<svg xmlns="http://www.w3.org/2000/svg" viewBox="0 0 800 480" width="800" height="480">
  <rect width="800" height="480" fill="#FAFAF9"/>
  <rect x="24" y="24" width="752" height="56" rx="8" fill="#FFFFFF" stroke="#E7E5E4"/>
  <text x="44" y="56" font-family="Pretendard, sans-serif" font-size="14" font-weight="800" fill="#0C0A09">앱마켓 파트너 정산 교차검증 대시보드</text>
  <text x="44" y="74" font-family="Pretendard, sans-serif" font-size="11" fill="#A8A29E">2026.04 마감 · 파트너 6개사 · 월 정산 데이터</text>
  <rect x="640" y="44" width="120" height="28" rx="14" fill="#E5F7EB"/>
  <text x="664" y="62" font-family="Pretendard, sans-serif" font-size="12" font-weight="700" fill="#008A29">오차 0건 ✓</text>

  <rect x="24" y="96" width="180" height="84" rx="8" fill="#FFFFFF" stroke="#E7E5E4"/>
  <text x="40" y="118" font-family="Pretendard, sans-serif" font-size="11" font-weight="700" fill="#00AB33" letter-spacing="1">PARTNERS</text>
  <text x="40" y="148" font-family="Pretendard, sans-serif" font-size="28" font-weight="800" fill="#0C0A09">6</text>
  <text x="76" y="148" font-family="Pretendard, sans-serif" font-size="13" fill="#57534E">개사</text>
  <text x="40" y="168" font-family="Pretendard, sans-serif" font-size="11" fill="#A8A29E">정산 대상 파트너</text>

  <rect x="216" y="96" width="180" height="84" rx="8" fill="#FFFFFF" stroke="#E7E5E4"/>
  <text x="232" y="118" font-family="Pretendard, sans-serif" font-size="11" font-weight="700" fill="#00AB33" letter-spacing="1">TXN VOLUME</text>
  <text x="232" y="148" font-family="Pretendard, sans-serif" font-size="28" font-weight="800" fill="#0C0A09">2.7억+</text>
  <text x="232" y="168" font-family="Pretendard, sans-serif" font-size="11" fill="#A8A29E">월 평균 정산 거래액</text>

  <rect x="408" y="96" width="180" height="84" rx="8" fill="#FFFFFF" stroke="#E7E5E4"/>
  <text x="424" y="118" font-family="Pretendard, sans-serif" font-size="11" font-weight="700" fill="#00AB33" letter-spacing="1">VARIANCE</text>
  <text x="424" y="148" font-family="Pretendard, sans-serif" font-size="28" font-weight="800" fill="#0C0A09">0.00%</text>
  <text x="424" y="168" font-family="Pretendard, sans-serif" font-size="11" fill="#A8A29E">파트너-내부 데이터 차이</text>

  <rect x="600" y="96" width="176" height="84" rx="8" fill="#FFFFFF" stroke="#E7E5E4"/>
  <text x="616" y="118" font-family="Pretendard, sans-serif" font-size="11" font-weight="700" fill="#00AB33" letter-spacing="1">LEAD TIME</text>
  <text x="616" y="148" font-family="Pretendard, sans-serif" font-size="28" font-weight="800" fill="#0C0A09">▼ 57%</text>
  <text x="616" y="168" font-family="Pretendard, sans-serif" font-size="11" fill="#A8A29E">전산화 후 처리 시간 단축</text>

  <rect x="24" y="196" width="488" height="260" rx="8" fill="#FFFFFF" stroke="#E7E5E4"/>
  <text x="44" y="220" font-family="Pretendard, sans-serif" font-size="13" font-weight="700" fill="#0C0A09">파트너별 매출 vs 정산 정합성</text>

  <line x1="44" y1="436" x2="492" y2="436" stroke="#E7E5E4"/>
  <g font-family="Pretendard, sans-serif" font-size="10" fill="#A8A29E">
    <text x="60" y="452">P1</text><text x="132" y="452">P2</text><text x="204" y="452">P3</text><text x="276" y="452">P4</text><text x="348" y="452">P5</text><text x="420" y="452">P6</text>
  </g>
  <g fill="#00AB33">
    <rect x="56" y="316" width="20" height="120"/>
    <rect x="128" y="280" width="20" height="156"/>
    <rect x="200" y="252" width="20" height="184"/>
    <rect x="272" y="332" width="20" height="104"/>
    <rect x="344" y="296" width="20" height="140"/>
    <rect x="416" y="268" width="20" height="168"/>
  </g>
  <g fill="#008A29">
    <rect x="80" y="316" width="20" height="120"/>
    <rect x="152" y="280" width="20" height="156"/>
    <rect x="224" y="252" width="20" height="184"/>
    <rect x="296" y="332" width="20" height="104"/>
    <rect x="368" y="296" width="20" height="140"/>
    <rect x="440" y="268" width="20" height="168"/>
  </g>
  <rect x="44" y="244" width="12" height="12" fill="#00AB33"/>
  <text x="62" y="254" font-family="Pretendard, sans-serif" font-size="11" fill="#57534E">파트너 신고 매출</text>
  <rect x="148" y="244" width="12" height="12" fill="#008A29"/>
  <text x="166" y="254" font-family="Pretendard, sans-serif" font-size="11" fill="#57534E">내부 집계 매출 (Match)</text>

  <rect x="524" y="196" width="252" height="260" rx="8" fill="#F0FBF4" stroke="#E7E5E4"/>
  <text x="544" y="220" font-family="Pretendard, sans-serif" font-size="13" font-weight="700" fill="#0C0A09">교차검증 체크리스트</text>
  <g font-family="Pretendard, sans-serif" font-size="12" fill="#0C0A09">
    <text x="544" y="252">✓  파트너 신고 매출 vs 내부 집계</text>
    <text x="544" y="276">✓  과금 단가 × 사용량 재계산</text>
    <text x="544" y="300">✓  부가세·수수료 산식 검증</text>
    <text x="544" y="324">✓  서비스 종료 고객 분리 처리</text>
    <text x="544" y="348">✓  대사 후 SUMIF로 차이 확인</text>
    <text x="544" y="372">✓  이상치 — 직접 파트너 확인</text>
  </g>
  <rect x="544" y="392" width="212" height="44" rx="6" fill="#FFFFFF" stroke="#00AB33"/>
  <text x="558" y="412" font-family="Pretendard, sans-serif" font-size="11" font-weight="700" fill="#008A29">프로세스 효과</text>
  <text x="558" y="428" font-family="Pretendard, sans-serif" font-size="11" fill="#57534E">12개월 누적 — 정산 분쟁 0건 유지</text>
</svg>
